<?xml version="1.0" encoding="utf-8"?>
<!-- Generator: Adobe Illustrator 23.1.0, SVG Export Plug-In . SVG Version: 6.00 Build 0)  -->
<svg version="1.1" id="Layer_1" xmlns="http://www.w3.org/2000/svg" xmlns:xlink="http://www.w3.org/1999/xlink" x="0px" y="0px"
	 viewBox="0 0 258.57 115.23" style="enable-background:new 0 0 258.57 115.23;" xml:space="preserve">
<style type="text/css">
	.st0{fill:#F18C1A;}
	.st1{fill:#63451F;}
	.st2{fill:#775A26;}
</style>
<g>
	<path class="st0" d="M-58.63-114.67v28.87h-10.6v-78.47c0-3.48,0.13-6.43,0.39-8.85s0.69-4.41,1.31-5.94
		c0.62-1.53,1.44-2.65,2.47-3.33c1.03-0.69,2.32-1.03,3.86-1.03h8.96c2.23,0,4.29,0.67,6.18,2c1.89,1.33,3.52,3.36,4.89,6.06
		c1.37,2.71,2.44,6.17,3.22,10.37c0.77,4.21,1.16,9.18,1.16,14.92v2.06c0,5.74-0.39,10.71-1.16,14.92
		c-0.77,4.21-1.84,7.66-3.22,10.37c-1.37,2.71-3,4.73-4.89,6.06c-1.89,1.33-3.95,2-6.18,2H-58.63z M-58.63-135.77h5.87
		c0.86,0,1.62-0.34,2.29-1.03c0.67-0.69,1.24-1.64,1.7-2.85c0.46-1.21,0.81-2.59,1.05-4.12c0.24-1.54,0.36-3.15,0.36-4.85v-0.85
		c0-1.7-0.12-3.31-0.36-4.85c-0.24-1.54-0.59-2.91-1.05-4.12c-0.46-1.21-1.03-2.16-1.7-2.85c-0.67-0.69-1.43-1.03-2.29-1.03h-4.37
		c-0.58,0-0.98,0.22-1.18,0.67c-0.21,0.45-0.31,1.39-0.31,2.85V-135.77z"/>
	<path class="st0" d="M-21.93-145.72h14.05c0.75,0,1.39,0.32,1.9,0.97c0.51,0.65,0.94,1.5,1.29,2.55c0.34,1.05,0.59,2.2,0.75,3.46
		c0.15,1.25,0.23,2.49,0.23,3.7c0,1.21-0.08,2.43-0.23,3.64s-0.4,2.33-0.72,3.34c-0.33,1.01-0.75,1.82-1.29,2.43
		c-0.53,0.61-1.18,0.91-1.93,0.91h-14.05v14.19c0,1.46,0.1,2.41,0.31,2.85c0.21,0.45,0.6,0.67,1.18,0.67h13.54
		c0.75,0,1.4,0.3,1.93,0.91c0.53,0.61,0.96,1.42,1.29,2.43c0.33,1.01,0.57,2.14,0.72,3.4c0.15,1.25,0.23,2.49,0.23,3.7
		s-0.08,2.47-0.23,3.76c-0.15,1.29-0.4,2.47-0.75,3.52c-0.34,1.05-0.77,1.9-1.29,2.55c-0.51,0.65-1.15,0.97-1.9,0.97h-17.55
		c-1.54,0-2.83-0.34-3.86-1.03s-1.85-1.8-2.47-3.34c-0.62-1.53-1.06-3.52-1.31-5.94c-0.26-2.43-0.39-5.38-0.39-8.85v-59.31
		c0-3.48,0.13-6.43,0.39-8.85s0.69-4.41,1.31-5.94c0.62-1.53,1.44-2.65,2.47-3.33c1.03-0.69,2.32-1.03,3.86-1.03h17.04
		c0.75,0,1.39,0.32,1.9,0.97c0.51,0.65,0.94,1.5,1.29,2.55c0.34,1.05,0.59,2.23,0.75,3.52c0.15,1.29,0.23,2.55,0.23,3.76
		s-0.08,2.45-0.23,3.7c-0.15,1.25-0.39,2.39-0.72,3.4c-0.33,1.01-0.76,1.82-1.29,2.43c-0.53,0.61-1.18,0.91-1.93,0.91h-13.02
		c-0.58,0-0.98,0.22-1.18,0.67c-0.21,0.45-0.31,1.39-0.31,2.85V-145.72z"/>
	<path class="st0" d="M10.85-85.8v-76.17H2.98c-0.76,0-1.4-0.32-1.93-0.97c-0.53-0.65-0.96-1.5-1.29-2.55
		c-0.33-1.05-0.57-2.22-0.72-3.52c-0.15-1.29-0.23-2.55-0.23-3.76s0.08-2.44,0.23-3.7c0.15-1.25,0.39-2.38,0.72-3.4
		c0.33-1.01,0.75-1.82,1.29-2.43c0.53-0.61,1.17-0.91,1.93-0.91h26.45c0.75,0,1.4,0.3,1.93,0.91c0.53,0.61,0.96,1.42,1.29,2.43
		c0.33,1.01,0.57,2.14,0.72,3.4c0.15,1.25,0.23,2.49,0.23,3.7s-0.08,2.47-0.23,3.76c-0.15,1.29-0.4,2.47-0.75,3.52
		c-0.34,1.05-0.77,1.9-1.29,2.55c-0.51,0.65-1.15,0.97-1.9,0.97h-7.87v76.17H10.85z"/>
	<path class="st0" d="M111-154.45c0,3.8-0.4,7.32-1.21,10.55c-0.81,3.23-2.03,5.94-3.68,8.13c2.23,2.1,3.86,5.03,4.89,8.79
		c1.03,3.76,1.54,8.03,1.54,12.8v0.12c0,5.18-0.4,9.56-1.21,13.16c-0.81,3.6-1.92,6.51-3.35,8.73c-1.42,2.22-3.11,3.84-5.04,4.85
		c-1.94,1.01-4.06,1.52-6.36,1.52h-8.96c-1.54,0-2.83-0.34-3.86-1.03s-1.85-1.8-2.47-3.34c-0.62-1.53-1.06-3.52-1.31-5.94
		c-0.26-2.43-0.39-5.38-0.39-8.85v-59.31c0-3.48,0.13-6.43,0.39-8.85s0.69-4.41,1.31-5.94c0.62-1.53,1.44-2.65,2.47-3.33
		c1.03-0.69,2.32-1.03,3.86-1.03h7.51c2.37,0,4.52,0.63,6.46,1.88c1.94,1.25,3.6,3.07,4.99,5.46c1.39,2.39,2.47,5.34,3.24,8.85
		s1.16,7.54,1.16,12.07V-154.45z M91.55-162.82c-0.58,0-0.98,0.22-1.18,0.67c-0.21,0.45-0.31,1.4-0.31,2.85v14.8h5.61
		c0.86,0,1.6-0.26,2.21-0.79c0.62-0.52,1.12-1.21,1.52-2.06c0.39-0.85,0.69-1.78,0.87-2.79c0.19-1.01,0.28-2.04,0.28-3.09v-0.85
		c0-2.18-0.39-4.18-1.16-6c-0.77-1.82-2.02-2.73-3.73-2.73H91.55z M90.05-124.73v14.8c0,1.46,0.1,2.41,0.31,2.85
		c0.21,0.45,0.6,0.67,1.18,0.67h5.66c1.72,0,2.96-0.91,3.73-2.73s1.16-3.82,1.16-6V-116c0-2.18-0.39-4.18-1.16-6
		s-2.02-2.73-3.73-2.73H90.05z"/>
	<path class="st0" d="M116.4-85.8v-63.67c0-2.02,0.15-3.78,0.44-5.28c0.29-1.5,0.68-2.75,1.16-3.76c0.48-1.01,1.03-1.78,1.65-2.3
		c0.62-0.52,1.27-0.79,1.96-0.79c0.99,0,1.93,0.57,2.8,1.7c0.88,1.13,1.54,2.83,1.98,5.09c0.96-2.1,2.02-3.76,3.19-4.97
		c1.17-1.21,2.38-1.82,3.65-1.82c0.38,0,0.78,0.06,1.21,0.18c0.43,0.12,0.83,0.38,1.21,0.79c0.99,0.97,1.74,2.59,2.24,4.85
		c0.5,2.26,0.66,4.81,0.49,7.64c-0.17,2.83-0.68,5.09-1.52,6.79c-0.84,1.7-1.83,2.55-2.96,2.55c-0.38,0-0.77-0.02-1.18-0.06
		c-0.41-0.04-0.81-0.02-1.18,0.06c-1.44,0.24-2.57,1.25-3.37,3.03c-0.81,1.78-1.24,4.21-1.31,7.28v42.69H116.4z"/>
	<path class="st0" d="M156.5-83.74c-1.85,0-3.72-0.57-5.61-1.7c-1.89-1.13-3.59-2.99-5.12-5.58c-1.53-2.59-2.76-6.04-3.71-10.37
		c-0.94-4.32-1.42-9.64-1.42-15.95v-10.67c0-6.47,0.46-11.84,1.36-16.13c0.91-4.28,2.08-7.72,3.5-10.31c1.42-2.59,3-4.43,4.73-5.52
		c1.73-1.09,3.42-1.64,5.07-1.64c1.78,0,3.53,0.51,5.22,1.52c1.7,1.01,3.22,2.93,4.55,5.76c1.34,2.83,2.41,6.77,3.22,11.83
		c0.81,5.05,1.21,11.58,1.21,19.59c0,1.05-0.03,2.3-0.08,3.76c-0.05,1.46-0.11,2.71-0.18,3.76h-18.42v0.12
		c0,2.1,0.19,3.84,0.57,5.22c0.38,1.38,0.86,2.51,1.44,3.4c0.58,0.89,1.22,1.52,1.9,1.88s1.34,0.55,1.96,0.55
		c1.27,0,2.25-0.12,2.93-0.36c0.69-0.24,1.37-0.65,2.06-1.21c0.38-0.32,0.76-0.67,1.16-1.03c0.39-0.36,0.81-0.63,1.26-0.79
		c0.89-0.24,1.71,0,2.44,0.73c0.74,0.73,1.28,2.02,1.62,3.88c0.55,2.99,0.56,5.72,0.03,8.19c-0.53,2.47-1.42,4.55-2.65,6.25
		c-0.41,0.57-0.94,1.13-1.57,1.7c-0.63,0.56-1.36,1.09-2.16,1.58c-0.81,0.48-1.67,0.87-2.57,1.15
		C158.34-83.88,157.42-83.74,156.5-83.74z M155.36-141.96c-0.58,0-1.14,0.18-1.67,0.55c-0.53,0.36-1,0.97-1.42,1.82
		c-0.41,0.85-0.75,1.94-1.03,3.27c-0.28,1.33-0.41,3.01-0.41,5.03h8.7c0.03-2.02-0.06-3.7-0.28-5.03c-0.22-1.33-0.52-2.43-0.9-3.27
		s-0.83-1.46-1.36-1.82C156.45-141.77,155.91-141.96,155.36-141.96z"/>
	<path class="st0" d="M189.59-83.74c-1.85,0-3.72-0.57-5.61-1.7c-1.89-1.13-3.59-2.99-5.12-5.58c-1.53-2.59-2.76-6.04-3.71-10.37
		c-0.94-4.32-1.42-9.64-1.42-15.95v-10.67c0-6.47,0.46-11.84,1.36-16.13c0.91-4.28,2.08-7.72,3.5-10.31c1.42-2.59,3-4.43,4.73-5.52
		c1.73-1.09,3.42-1.64,5.07-1.64c1.78,0,3.53,0.51,5.22,1.52c1.7,1.01,3.22,2.93,4.55,5.76c1.34,2.83,2.41,6.77,3.22,11.83
		c0.81,5.05,1.21,11.58,1.21,19.59c0,1.05-0.03,2.3-0.08,3.76c-0.05,1.46-0.11,2.71-0.18,3.76h-18.42v0.12
		c0,2.1,0.19,3.84,0.57,5.22c0.38,1.38,0.86,2.51,1.44,3.4c0.58,0.89,1.22,1.52,1.9,1.88s1.34,0.55,1.96,0.55
		c1.27,0,2.25-0.12,2.93-0.36c0.69-0.24,1.37-0.65,2.06-1.21c0.38-0.32,0.76-0.67,1.16-1.03c0.39-0.36,0.81-0.63,1.26-0.79
		c0.89-0.24,1.71,0,2.44,0.73c0.74,0.73,1.28,2.02,1.62,3.88c0.55,2.99,0.56,5.72,0.03,8.19c-0.53,2.47-1.42,4.55-2.65,6.25
		c-0.41,0.57-0.94,1.13-1.57,1.7c-0.63,0.56-1.36,1.09-2.16,1.58c-0.81,0.48-1.67,0.87-2.57,1.15
		C191.43-83.88,190.51-83.74,189.59-83.74z M188.46-141.96c-0.58,0-1.14,0.18-1.67,0.55c-0.53,0.36-1,0.97-1.42,1.82
		c-0.41,0.85-0.75,1.94-1.03,3.27c-0.28,1.33-0.41,3.01-0.41,5.03h8.7c0.03-2.02-0.06-3.7-0.28-5.03c-0.22-1.33-0.52-2.43-0.9-3.27
		s-0.83-1.46-1.36-1.82C189.54-141.77,189-141.96,188.46-141.96z"/>
	<path class="st0" d="M210.58-140.62c-0.76,0-1.39-0.3-1.9-0.91s-0.94-1.4-1.26-2.37s-0.57-2.04-0.72-3.21
		c-0.15-1.17-0.23-2.37-0.23-3.58c0-1.21,0.08-2.43,0.23-3.64s0.39-2.3,0.72-3.27c0.33-0.97,0.75-1.78,1.29-2.43
		c0.53-0.65,1.16-0.97,1.88-0.97h14.72c2.92,0,4.87,2.02,5.87,6.06c0.24,0.97,0.43,2.12,0.57,3.46c0.14,1.33,0.17,2.79,0.1,4.37
		c-0.07,1.58-0.27,3.27-0.59,5.09c-0.33,1.82-0.85,3.74-1.57,5.76l-10.76,30.08h9.83c0.75,0,1.39,0.3,1.9,0.91s0.93,1.4,1.26,2.37
		s0.57,2.04,0.72,3.21c0.15,1.17,0.23,2.37,0.23,3.58c0,1.21-0.08,2.43-0.23,3.64s-0.39,2.3-0.72,3.27
		c-0.33,0.97-0.75,1.78-1.29,2.43c-0.53,0.65-1.16,0.97-1.88,0.97h-16.01c-1.44,0-2.65-0.47-3.63-1.39
		c-0.98-0.93-1.72-2.49-2.24-4.67c-0.21-0.89-0.39-1.96-0.57-3.21c-0.17-1.25-0.23-2.67-0.18-4.25s0.24-3.29,0.57-5.15
		c0.33-1.86,0.88-3.88,1.67-6.06l10.76-30.08H210.58z"/>
	<path class="st0" d="M251.91-83.74c-1.85,0-3.72-0.57-5.61-1.7c-1.89-1.13-3.59-2.99-5.12-5.58c-1.53-2.59-2.76-6.04-3.71-10.37
		c-0.94-4.32-1.42-9.64-1.42-15.95v-10.67c0-6.47,0.46-11.84,1.36-16.13c0.91-4.28,2.08-7.72,3.5-10.31c1.42-2.59,3-4.43,4.73-5.52
		c1.73-1.09,3.42-1.64,5.07-1.64c1.78,0,3.53,0.51,5.22,1.52c1.7,1.01,3.22,2.93,4.55,5.76c1.34,2.83,2.41,6.77,3.22,11.83
		c0.81,5.05,1.21,11.58,1.21,19.59c0,1.05-0.03,2.3-0.08,3.76c-0.05,1.46-0.11,2.71-0.18,3.76h-18.42v0.12
		c0,2.1,0.19,3.84,0.57,5.22c0.38,1.38,0.86,2.51,1.44,3.4c0.58,0.89,1.22,1.52,1.9,1.88s1.34,0.55,1.96,0.55
		c1.27,0,2.25-0.12,2.93-0.36c0.69-0.24,1.37-0.65,2.06-1.21c0.38-0.32,0.76-0.67,1.16-1.03c0.39-0.36,0.81-0.63,1.26-0.79
		c0.89-0.24,1.71,0,2.44,0.73c0.74,0.73,1.28,2.02,1.62,3.88c0.55,2.99,0.56,5.72,0.03,8.19c-0.53,2.47-1.42,4.55-2.65,6.25
		c-0.41,0.57-0.94,1.13-1.57,1.7c-0.63,0.56-1.36,1.09-2.16,1.58c-0.81,0.48-1.67,0.87-2.57,1.15
		C253.75-83.88,252.84-83.74,251.91-83.74z M250.78-141.96c-0.58,0-1.14,0.18-1.67,0.55c-0.53,0.36-1,0.97-1.42,1.82
		c-0.41,0.85-0.75,1.94-1.03,3.27c-0.28,1.33-0.41,3.01-0.41,5.03h8.7c0.03-2.02-0.06-3.7-0.28-5.03c-0.22-1.33-0.52-2.43-0.9-3.27
		s-0.83-1.46-1.36-1.82C251.87-141.77,251.33-141.96,250.78-141.96z"/>
</g>
<g>
	
		<ellipse transform="matrix(0.9611 -0.2762 0.2762 0.9611 37.6911 7.218)" class="st1" cx="44.47" cy="-130.19" rx="5.72" ry="8.1"/>
	<ellipse transform="matrix(0.79 -0.6131 0.6131 0.79 78.3713 -4.3712)" class="st1" cx="32.8" cy="-116.59" rx="5.91" ry="7.19"/>
	<ellipse transform="matrix(0.6131 -0.79 0.79 0.6131 119.1161 10.041)" class="st1" cx="69.81" cy="-116.59" rx="7.19" ry="5.91"/>
	
		<ellipse transform="matrix(0.2847 -0.9586 0.9586 0.2847 166.5169 -37.224)" class="st1" cx="58.32" cy="-130.19" rx="8.1" ry="5.72"/>
	
		<ellipse transform="matrix(0.6113 -0.7914 0.7914 0.6113 99.0605 -4.3927)" class="st1" cx="45.06" cy="-103.04" rx="10.16" ry="7.68"/>
	
		<ellipse transform="matrix(0.8257 -0.5641 0.5641 0.8257 67.9242 14.6617)" class="st1" cx="57.69" cy="-102.59" rx="7.75" ry="10.06"/>
	<ellipse class="st1" cx="51.31" cy="-111.13" rx="9.68" ry="9.34"/>
</g>
<g>
	<g>
		<path class="st1" d="M-28.94,235.01c-0.05,16.61-6.33,25.1-13.38,25.35h-3.04v-2.06h3.04c6.59-0.24,12.46-8.25,12.46-23.41
			c-0.05-15.64-6.12-20.25-12.97-20.25h-5.25v79.56h4.89v2.06h-9.68v-2.06h3.86v-79.56h-3.6v-2.06h9.88
			C-35.37,212.7-28.94,217.67-28.94,235.01z"/>
		<path class="st1" d="M-0.63,280.85l-1.39,15.4h-22.29v-2.06h3.86v-79.56h-3.6v-2.06h20.79l0.72,15.52l-0.93,0.24l-0.67-13.7
			h-15.39v36.38h12.76v-7.64h0.93v18.68h-0.93v-8.97h-12.76v41.11h16.78l1.23-13.7L-0.63,280.85z"/>
		<path class="st1" d="M32.82,228.1l-0.93,0.24l-0.67-13.7H19.13v79.56h4.73v2.06H13.57v-2.06h4.63v-79.56H6.05l-0.62,13.7
			l-0.93-0.24l0.72-15.52H32.1L32.82,228.1z"/>
		<path class="st1" d="M72.44,296.26v-2.06h3.86v-79.56h-3.6v-2.06h11.53c5.97,0,10.29,5.58,10.29,18.8c0,9.94-2.93,17.22-7,19.89
			c5.3,2.42,9.37,9.82,9.37,22.07c0,15.16-5.92,22.92-13.02,22.92H72.44z M84.23,214.64h-7v35.78h6.9
			c5.25-0.36,9.47-7.88,9.47-19.04C93.6,219.61,89.69,214.64,84.23,214.64z M77.23,294.19h6.64c6.59,0,12.09-7.16,12.09-20.86
			c0-13.34-5.51-20.5-11.89-20.86h-6.85V294.19z"/>
		<path class="st1" d="M107.85,236.22v14.43c2.11-8.25,4.94-15.04,8.44-15.04c1.24,0,2.42,0.61,3.24,1.58l-0.36,1.94
			c-0.82-0.97-1.75-1.46-2.73-1.46c-3.6,0-6.43,7.88-8.6,16.86v39.66h3.29v2.06h-7.72v-2.06h3.5v-55.79l-3.35,2.3l-0.26-1.94
			l3.6-2.55H107.85z"/>
		<path class="st1" d="M144.19,288.74c-1.8,3.64-6.02,8.13-9.52,8.13c-6.79,0-11.53-11.88-11.53-30.08
			c0-17.83,4.94-31.17,11.99-31.17c4.94,0.24,9.21,8.49,9.37,23.29c0,0.97,0,2.18-0.05,3.28l-20.18,0.24
			c-0.1,1.58-0.1,3.15-0.1,4.73c0,17.1,4.63,27.65,10.65,27.65c4.48-0.24,7.98-5.82,8.85-7.88L144.19,288.74z M124.37,260.36
			l19.2-0.24c0-14.55-3.86-22.19-8.44-22.44C129.57,237.68,125.14,247.02,124.37,260.36z"/>
		<path class="st1" d="M170.43,288.74c-1.8,3.64-6.02,8.13-9.52,8.13c-6.79,0-11.53-11.88-11.53-30.08
			c0-17.83,4.94-31.17,11.99-31.17c4.94,0.24,9.21,8.49,9.37,23.29c0,0.97,0,2.18-0.05,3.28l-20.18,0.24
			c-0.1,1.58-0.1,3.15-0.1,4.73c0,17.1,4.63,27.65,10.65,27.65c4.48-0.24,7.98-5.82,8.85-7.88L170.43,288.74z M150.62,260.36
			l19.2-0.24c0-14.55-3.86-22.19-8.44-22.44C155.82,237.68,151.39,247.02,150.62,260.36z"/>
		<path class="st1" d="M193.39,236.22v2.06l-16.47,55.91h15.85l1.08-10.92l0.82,0.36l-1.18,12.61h-17.6v-2.06l16.32-55.91h-14.15
			l-0.41,9.58l-0.88-0.12l0.46-11.52H193.39z"/>
		<path class="st1" d="M220.87,288.74c-1.8,3.64-6.02,8.13-9.52,8.13c-6.79,0-11.53-11.88-11.53-30.08
			c0-17.83,4.94-31.17,11.99-31.17c4.94,0.24,9.21,8.49,9.37,23.29c0,0.97,0,2.18-0.05,3.28l-20.17,0.24
			c-0.1,1.58-0.1,3.15-0.1,4.73c0,17.1,4.63,27.65,10.65,27.65c4.48-0.24,7.98-5.82,8.85-7.88L220.87,288.74z M201.05,260.36
			l19.2-0.24c0-14.55-3.86-22.19-8.44-22.44C206.25,237.68,201.83,247.02,201.05,260.36z"/>
	</g>
	<g>
		<g>
			
				<ellipse transform="matrix(0.9937 -0.1124 0.1124 0.9937 -28.5678 6.5654)" class="st2" cx="43.95" cy="256.66" rx="3.93" ry="8.45"/>
			
				<ellipse transform="matrix(0.9848 -0.1735 0.1735 0.9848 -46.4818 10.3662)" class="st2" cx="36.05" cy="271.05" rx="4.23" ry="7.21"/>
			
				<ellipse transform="matrix(0.1735 -0.9848 0.9848 0.1735 -216.4447 284.1975)" class="st2" cx="61.1" cy="271.05" rx="7.21" ry="4.23"/>
			
				<ellipse transform="matrix(0.1159 -0.9933 0.9933 0.1159 -207.7884 279.863)" class="st2" cx="53.32" cy="256.66" rx="8.44" ry="3.93"/>
			
				<ellipse transform="matrix(0.2258 -0.9742 0.9742 0.2258 -243.6945 264.1426)" class="st2" cx="44.35" cy="285.4" rx="10.04" ry="5.57"/>
			
				<ellipse transform="matrix(0.9802 -0.1981 0.1981 0.9802 -55.595 16.1487)" class="st2" cx="52.9" cy="285.88" rx="5.54" ry="10.08"/>
			<ellipse class="st2" cx="48.58" cy="276.83" rx="6.55" ry="9.89"/>
		</g>
	</g>
</g>
<g>
	<g>
		<g>
			
				<ellipse transform="matrix(0.9523 -0.3052 0.3052 0.9523 -11.3257 72.1596)" class="st1" cx="225.14" cy="72.3" rx="6" ry="8.25"/>
			
				<ellipse transform="matrix(0.7313 -0.6821 0.6821 0.7313 -1.5442 168.3251)" class="st1" cx="212.86" cy="86.12" rx="6.13" ry="7.42"/>
			
				<ellipse transform="matrix(0.6821 -0.7313 0.7313 0.6821 17.0807 211.5321)" class="st1" cx="251.81" cy="86.12" rx="7.42" ry="6.13"/>
			
				<ellipse transform="matrix(0.3143 -0.9493 0.9493 0.3143 95.7332 277.1473)" class="st1" cx="239.71" cy="72.3" rx="8.26" ry="6"/>
			
				<ellipse transform="matrix(0.6605 -0.7509 0.7509 0.6605 1.6495 203.431)" class="st1" cx="225.76" cy="99.89" rx="10.47" ry="7.97"/>
			
				<ellipse transform="matrix(0.7864 -0.6177 0.6177 0.7864 -10.9233 169.1098)" class="st1" cx="239.06" cy="100.35" rx="8.06" ry="10.36"/>
			<ellipse class="st1" cx="232.34" cy="91.67" rx="10.19" ry="9.5"/>
		</g>
	</g>
	<g>
		<path class="st0" d="M3.65,66.1c-1.2,0-2.11-0.91-2.73-2.73C0.31,61.55,0,59.55,0,57.37c0-2.1,0.26-4,0.77-5.7
			c0.51-1.7,1.39-2.63,2.62-2.79V32.87c0-3.31,0.38-5.64,1.13-6.97c0.75-1.33,1.73-2,2.93-2c1.2,0,2.19,0.67,2.96,2
			c0.77,1.33,1.16,3.66,1.16,6.97v16.01h2.11V32.87c0-3.31,0.38-5.64,1.13-6.97c0.75-1.33,1.73-2,2.93-2c1.2,0,2.19,0.67,2.96,2
			c0.77,1.33,1.16,3.66,1.16,6.97v16.01h0.1c1.3,0,2.24,0.87,2.8,2.61c0.57,1.74,0.85,3.7,0.85,5.88c0,2.18-0.31,4.18-0.93,6
			c-0.62,1.82-1.53,2.73-2.73,2.73H3.65z M4.17,20.86c-1.2,0-2.11-0.89-2.73-2.67c-0.62-1.78-0.93-3.84-0.93-6.18
			c0-2.34,0.28-4.43,0.85-6.25c0.57-1.82,1.5-2.73,2.8-2.73H20.9c1.3,0,2.24,0.91,2.8,2.73c0.57,1.82,0.85,3.9,0.85,6.25
			c0,2.35-0.31,4.41-0.93,6.18c-0.62,1.78-1.53,2.67-2.73,2.67H4.17z M30.72,81.14c1.99-0.16,4,0.3,6.02,1.39
			c2.02,1.09,3.89,2.93,5.61,5.52c1.71,2.59,3.17,6,4.37,10.25s1.99,9.44,2.37,15.58H38.55c-0.31-2.59-0.82-4.89-1.54-6.91
			c-0.72-2.02-1.6-3.7-2.63-5.03s-2.18-2.26-3.45-2.79c-1.27-0.52-2.59-0.58-3.96-0.18c-1.27,2.83-2.75,5.34-4.43,7.52
			c-1.68,2.18-3.45,3.96-5.3,5.34c-1.85,1.37-3.7,2.34-5.53,2.91c-1.83,0.56-3.54,0.65-5.12,0.24c-1.24-0.32-2.26-1.5-3.09-3.52
			c-0.82-2.02-1.2-4.57-1.13-7.64c0.07-2.99,0.52-5.28,1.36-6.85c0.84-1.58,1.86-2.28,3.06-2.12c1.17,0.16,2.42-0.02,3.76-0.55
			c1.34-0.52,2.64-1.39,3.91-2.61c1.27-1.21,2.42-2.79,3.45-4.73s1.8-4.29,2.32-7.03c0.72-3.88,1.54-6.53,2.47-7.94
			c0.93-1.41,2.06-2.04,3.4-1.88c1.34,0.16,2.45,1.07,3.32,2.73c0.87,1.66,1.31,4.31,1.31,7.94V81.14z M27.69,44.03h-1.13
			c-1.27,0-2.2-0.95-2.78-2.85c-0.58-1.9-0.88-4.14-0.88-6.73c0-2.59,0.27-4.83,0.8-6.73c0.53-1.9,1.48-2.85,2.86-2.85h1.13V10.31
			c0-3.4,0.44-5.96,1.31-7.7C29.88,0.87,30.91,0,32.11,0c1.17,0,2.19,0.87,3.06,2.61c0.88,1.74,1.31,4.31,1.31,7.7v57.25h-8.8V44.03
			z M38.55,10.31c0-3.4,0.45-5.96,1.34-7.7C40.78,0.87,41.82,0,43.03,0c1.17,0,2.2,0.87,3.11,2.61c0.91,1.74,1.36,4.31,1.36,7.7
			V71.8h-8.96V10.31z"/>
		<path class="st0" d="M95.11,90.96c0.79,0,1.47,0.3,2.03,0.91c0.57,0.61,1.03,1.39,1.39,2.36c0.36,0.97,0.62,2.08,0.77,3.34
			c0.15,1.25,0.23,2.49,0.23,3.7c0,1.29-0.09,2.55-0.26,3.76c-0.17,1.21-0.44,2.3-0.8,3.27c-0.36,0.97-0.82,1.74-1.36,2.3
			c-0.55,0.57-1.22,0.85-2.01,0.85H55.79c-0.79,0-1.46-0.28-2.01-0.85c-0.55-0.57-1-1.33-1.36-2.3c-0.36-0.97-0.63-2.06-0.8-3.27
			c-0.17-1.21-0.26-2.47-0.26-3.76c0-1.21,0.08-2.45,0.23-3.7c0.15-1.25,0.41-2.37,0.77-3.34c0.36-0.97,0.82-1.76,1.39-2.36
			c0.57-0.61,1.24-0.91,2.03-0.91H95.11z M64.49,18.68h21.87v-5.7c0-1.94,0.15-3.6,0.44-4.97c0.29-1.37,0.68-2.49,1.16-3.33
			s1.04-1.47,1.67-1.88c0.63-0.4,1.29-0.61,1.98-0.61c0.65,0,1.29,0.2,1.93,0.61c0.63,0.41,1.19,1.03,1.67,1.88S96.09,6.63,96.39,8
			c0.31,1.38,0.46,3.03,0.46,4.97v58.94H61.4c-1.54,0-2.8-0.3-3.78-0.91c-0.98-0.61-1.74-1.64-2.29-3.09
			c-0.55-1.46-0.92-3.38-1.11-5.76c-0.19-2.38-0.28-5.36-0.28-8.91V12.98c0-1.94,0.15-3.6,0.44-4.97c0.29-1.37,0.69-2.49,1.18-3.33
			s1.06-1.47,1.7-1.88c0.63-0.4,1.29-0.61,1.98-0.61c0.65,0,1.29,0.22,1.9,0.67c0.62,0.45,1.17,1.11,1.67,2
			c0.5,0.89,0.9,2.02,1.21,3.4c0.31,1.38,0.46,3.03,0.46,4.97V18.68z M86.36,52.27V37.6H64.49v11.04c0,1.21,0.11,2.12,0.33,2.73
			c0.22,0.61,0.64,0.91,1.26,0.91H86.36z"/>
		<path class="st0" d="M114.56,83.68c0,2.1,0.17,3.5,0.51,4.18c0.34,0.69,0.96,1.03,1.85,1.03h15.18c0.79,0,1.46,0.28,2.01,0.85
			c0.55,0.57,1,1.33,1.36,2.3c0.36,0.97,0.62,2.04,0.77,3.21c0.15,1.17,0.23,2.37,0.23,3.58c0,2.51-0.34,4.79-1.03,6.85
			c-0.69,2.06-1.8,3.09-3.34,3.09h-18.99c-1.61,0-2.98-0.36-4.12-1.09c-1.13-0.73-2.05-1.9-2.75-3.52c-0.7-1.62-1.22-3.74-1.54-6.37
			c-0.33-2.63-0.49-5.84-0.49-9.64V66.1c0-3.8,0.16-6.99,0.49-9.58c0.33-2.59,0.84-4.69,1.54-6.31c0.7-1.62,1.62-2.77,2.75-3.46
			c1.13-0.69,2.5-1.03,4.12-1.03h9.21V28.14c0-0.81-0.09-1.58-0.26-2.3s-0.55-1.09-1.13-1.09h-11.84c-0.79,0-1.46-0.28-2.01-0.85
			c-0.55-0.57-1-1.33-1.34-2.3c-0.34-0.97-0.6-2.06-0.77-3.27c-0.17-1.21-0.26-2.43-0.26-3.64s0.08-2.43,0.23-3.64
			s0.41-2.3,0.77-3.27c0.36-0.97,0.81-1.76,1.36-2.37s1.22-0.91,2.01-0.91h14.56c1.78,0,3.25,0.32,4.4,0.97
			c1.15,0.65,2.07,1.7,2.75,3.15c0.69,1.46,1.17,3.36,1.44,5.7c0.27,2.35,0.41,5.26,0.41,8.73v42.45h-15.75
			c-0.89,0-1.51,0.34-1.85,1.03c-0.34,0.69-0.51,2.08-0.51,4.18V83.68z M139.32,113.88V12.01c0-3.96,0.51-6.95,1.54-8.98
			c1.03-2.02,2.23-3.03,3.6-3.03c1.37,0,2.57,1.01,3.6,3.03c1.03,2.02,1.54,5.01,1.54,8.98v101.88H139.32z"/>
		<path class="st0" d="M198.04,90.96c0.79,0,1.47,0.3,2.03,0.91c0.56,0.61,1.03,1.39,1.39,2.36c0.36,0.97,0.62,2.08,0.77,3.34
			c0.15,1.25,0.23,2.49,0.23,3.7c0,1.29-0.09,2.55-0.26,3.76s-0.44,2.3-0.8,3.27c-0.36,0.97-0.82,1.74-1.37,2.3
			c-0.55,0.57-1.22,0.85-2.01,0.85h-39.32c-0.79,0-1.46-0.28-2.01-0.85c-0.55-0.57-1-1.33-1.36-2.3c-0.36-0.97-0.63-2.06-0.8-3.27
			s-0.26-2.47-0.26-3.76c0-1.21,0.08-2.45,0.23-3.7c0.15-1.25,0.41-2.37,0.77-3.34c0.36-0.97,0.82-1.76,1.39-2.36
			c0.57-0.61,1.24-0.91,2.03-0.91H198.04z M183.63,24.26c-0.03,1.62-0.09,3.15-0.18,4.61c-0.09,1.46-0.21,2.87-0.39,4.25h0.51
			c2.16,0,4.27,0.81,6.33,2.43c2.06,1.62,3.91,4.06,5.56,7.34s2.99,7.4,4.04,12.37c1.04,4.97,1.65,10.82,1.83,17.53h-10.14
			c-0.48-6.87-1.76-12.15-3.83-15.83c-2.08-3.68-4.62-5.52-7.64-5.52c-0.17,0-0.34,0.02-0.51,0.06c-0.17,0.04-0.36,0.1-0.57,0.18
			c-1.17,3.07-2.46,5.86-3.89,8.37c-1.42,2.51-2.92,4.67-4.48,6.49s-3.15,3.27-4.76,4.37s-3.17,1.76-4.68,2
			c-1.41,0.32-2.63-0.34-3.68-2c-1.05-1.66-1.66-3.9-1.83-6.73c-0.17-2.67,0.04-5.11,0.64-7.34c0.6-2.22,1.54-3.58,2.81-4.06
			c1.75-0.65,3.45-1.8,5.09-3.46c1.65-1.66,3.12-3.72,4.43-6.19c1.3-2.46,2.38-5.29,3.22-8.49c0.84-3.19,1.33-6.65,1.47-10.37h-12.4
			c-0.79,0-1.45-0.3-1.98-0.91c-0.53-0.61-0.98-1.4-1.34-2.37c-0.36-0.97-0.62-2.06-0.77-3.27c-0.15-1.21-0.23-2.43-0.23-3.64
			s0.08-2.43,0.23-3.64c0.16-1.21,0.4-2.32,0.75-3.33c0.34-1.01,0.79-1.82,1.34-2.43c0.55-0.61,4.67,5.9,5.46,5.9h28.35
			c0.79,0,5.28-6.5,5.83-5.9s0.99,1.42,1.34,2.43c0.34,1.01,0.59,2.12,0.75,3.33s0.23,2.43,0.23,3.64s-0.08,2.43-0.23,3.64
			s-0.41,2.3-0.77,3.27c-0.36,0.97-0.82,1.76-1.37,2.37s-1.2,0.91-1.96,0.91H183.63z"/>
	</g>
</g>
</svg>
